<svg width="67" height="30" viewBox="0 0 67 30" fill="none" xmlns="http://www.w3.org/2000/svg">
<path d="M2 6.53709C2 6.48486 2.03016 6.45874 2.09048 6.45874C2.16867 6.45874 2.29266 6.50984 2.46245 6.61204C4.03968 7.60219 6.08718 8.09727 8.60495 8.09727C10.1464 8.09727 11.6488 7.82589 13.1121 7.28312C13.369 7.18546 13.6349 7.02649 13.9097 6.80621C14.1376 6.59273 14.3688 6.38153 14.6034 6.1726L14.6302 6.13172C14.6302 6.06132 14.4883 6.00568 14.2046 5.9648C14.0482 5.93073 13.8829 5.90689 13.7086 5.89326C13.5991 5.87509 13.4763 5.81718 13.34 5.71953C13.1881 5.62642 13.1077 5.52422 13.0987 5.41294V5.14724C13.0987 4.70893 13.292 4.23089 13.6785 3.7131C14.0649 3.19531 14.4593 2.89667 14.8614 2.81718C15.0781 2.91029 15.1864 3.05677 15.1864 3.25662C15.1864 3.34519 15.163 3.47123 15.1161 3.63475C15.058 3.80961 14.9854 3.905 14.8982 3.92089C14.7195 3.73467 14.6022 3.64156 14.5464 3.64156C14.4012 3.64156 14.1778 3.81302 13.8762 4.15594C13.5768 4.49659 13.4271 4.74527 13.4271 4.90197C13.4271 4.9542 13.4349 4.98713 13.4506 5.00076C13.6137 5.11204 13.7645 5.17676 13.903 5.19493C14.3543 5.26079 14.5922 5.29826 14.6168 5.30734C14.8915 5.39137 15.0289 5.56851 15.0289 5.83876C15.0289 6.27025 14.8413 6.69606 14.466 7.1162C14.1353 7.46366 13.7511 7.72824 13.3132 7.90992C12.6251 8.18471 11.8488 8.41522 10.9842 8.60144C10.0839 8.79674 9.28633 8.8944 8.59154 8.8944C6.71941 8.8944 5.24606 8.68433 4.17149 8.26419C3.92798 8.15291 3.77606 8.08365 3.71574 8.0564C3.30915 7.77706 2.98521 7.54428 2.74394 7.35806C2.24798 6.92657 2 6.65291 2 6.53709Z" fill="white"/>
<path d="M15.7159 0.746026C15.7718 0.378123 15.8611 0.143073 15.984 0.0408781C16.0041 0.0635882 16.0209 0.0794852 16.0343 0.0885693C16.0923 0.404239 16.1616 0.915216 16.242 1.6215C16.3224 2.32551 16.3895 2.95912 16.4431 3.52233C16.4989 4.08554 16.5269 4.38304 16.5269 4.41484C16.5269 4.4807 16.5101 4.58516 16.4766 4.72824C16.4453 4.86904 16.3794 4.96442 16.2789 5.01438C16.2074 4.43755 16.1359 3.86412 16.0644 3.2941C15.9952 2.72407 15.9192 2.16313 15.8365 1.61128C15.7561 1.05715 15.7159 0.768736 15.7159 0.746026Z" fill="white"/>
<path d="M18.7587 4.30924C18.7587 4.12301 18.838 3.82324 18.9966 3.40992C19.1709 3.00568 19.3205 2.73089 19.4456 2.58554C19.7428 2.74451 19.955 2.88645 20.0823 3.01135C20.2566 3.19304 20.3437 3.42808 20.3437 3.7165C20.3437 4.24792 20.165 4.62718 19.8076 4.85428C19.7807 4.8997 19.7003 4.9349 19.5663 4.95988C19.4345 4.98259 19.3317 4.99394 19.258 4.99394C19.0994 4.99394 18.972 4.919 18.876 4.76911C18.7978 4.63058 18.7587 4.47729 18.7587 4.30924ZM19.1776 3.99584C19.1776 4.04807 19.2077 4.10257 19.268 4.15935C19.3306 4.21385 19.3797 4.2411 19.4155 4.2411H19.5194C19.7383 4.2411 19.8802 4.19455 19.9449 4.10144C19.9449 3.93338 19.888 3.78577 19.774 3.65859C19.6601 3.52914 19.5316 3.45079 19.3887 3.42354C19.2479 3.67108 19.1776 3.86185 19.1776 3.99584Z" fill="white"/>
<path d="M20.528 7.0651C20.528 7.01968 20.6911 6.95042 21.0173 6.8573C21.5065 6.69379 21.8428 6.5564 22.026 6.44512C22.3678 6.24073 22.6012 6.00568 22.7263 5.73997C22.7487 5.67411 22.7598 5.63664 22.7598 5.62755C22.7598 5.33914 22.7341 5.10409 22.6828 4.92241C22.656 4.84519 22.551 4.62263 22.3678 4.25473C22.3968 3.88683 22.4471 3.6654 22.5186 3.59046L22.656 3.67562C22.7855 3.88001 22.8593 3.99357 22.8771 4.01628C22.9598 4.10939 23.0737 4.17752 23.2189 4.22067C23.3977 4.29334 23.5127 4.31832 23.5641 4.29561V5.00076C23.3898 5.00984 23.2178 4.9894 23.048 4.93944V5.25965C23.048 5.68206 22.9285 6.07721 22.6895 6.44512C22.4527 6.81302 22.1466 7.07532 21.7713 7.23202C20.9424 7.257 20.528 7.20136 20.528 7.0651Z" fill="white"/>
<path d="M23.4301 4.29561C23.544 4.30015 23.7104 4.2536 23.9294 4.15594C24.1483 4.05829 24.279 4.00946 24.3214 4.00946C24.4041 4.00946 24.5471 4.05715 24.7504 4.15254C24.9537 4.24792 25.1168 4.29561 25.2396 4.29561V5.00076C25.0989 5.00076 24.9291 4.94852 24.7303 4.84406C24.5314 4.73959 24.3952 4.68736 24.3214 4.68736C24.2879 4.68736 24.1729 4.73959 23.9763 4.84406C23.7797 4.94852 23.6177 5.00076 23.4904 5.00076H23.4301V4.29561ZM24.3751 6.16238C24.4801 5.85125 24.5761 5.67979 24.6632 5.64799C24.7414 5.68887 24.8263 5.73997 24.9179 5.80129C25.014 5.88077 25.0799 5.95231 25.1156 6.0159C25.0464 6.37472 24.9481 6.55413 24.8207 6.55413C24.7738 6.55413 24.6889 6.5053 24.5661 6.40765C24.47 6.30545 24.4063 6.22369 24.3751 6.16238ZM23.5708 6.47578C23.5708 6.36904 23.6535 6.19531 23.8188 5.95458C24.0712 6.13172 24.2332 6.25662 24.3047 6.3293V6.35314C24.3047 6.4349 24.2823 6.53482 24.2377 6.65291C24.1863 6.77782 24.136 6.84027 24.0869 6.84027C24.031 6.84027 23.9305 6.79258 23.7853 6.6972C23.6423 6.60182 23.5708 6.52801 23.5708 6.47578Z" fill="white"/>
<path d="M25.0888 4.29561C25.4507 4.29561 25.8384 4.24905 26.2516 4.15594C26.6985 4.04012 27.0682 3.89818 27.3609 3.73013C26.7889 3.53482 26.465 3.43717 26.389 3.43717C26.293 3.43717 26.1433 3.47123 25.94 3.53936C25.7389 3.60749 25.5837 3.64156 25.4742 3.64156C25.5837 3.25095 25.6485 3.04769 25.6686 3.03179C25.7266 2.92051 25.873 2.80242 26.1076 2.67752C26.188 2.6321 26.2997 2.60939 26.4427 2.60939C26.503 2.60939 26.7498 2.70477 27.1832 2.89553C27.6636 3.11355 27.9518 3.23846 28.0478 3.27025C28.546 3.42468 29.0196 3.50189 29.4687 3.50189C29.5111 3.53823 29.5346 3.56775 29.539 3.59046C29.539 3.67449 29.481 3.84027 29.3648 4.08781H29.2509C28.947 4.08781 28.718 4.06397 28.5639 4.01628L28.5438 4.11506L28.5639 4.23429C28.6555 4.3274 28.7906 4.37396 28.9694 4.37396C29.2374 4.37396 29.4888 4.34784 29.7234 4.29561V5.00076L28.9895 5.01438C28.8107 5.01892 28.6633 4.95988 28.5471 4.83724C28.4332 4.71461 28.3762 4.56245 28.3762 4.38077C28.3762 4.35125 28.3807 4.3081 28.3896 4.25132C28.4008 4.19228 28.4064 4.14686 28.4064 4.11506V4.01628C28.1942 4.01628 27.9462 4.0651 27.6624 4.16276C27.2737 4.3081 26.9699 4.43414 26.751 4.54088C26.322 4.71802 26.064 4.81794 25.9769 4.84065C25.6842 4.94739 25.4139 5.00076 25.1659 5.00076H25.0888V4.29561ZM26.7945 6.15216C26.8951 5.79334 27.0001 5.60484 27.1095 5.58668C27.1788 5.59576 27.2704 5.63323 27.3843 5.69909C27.5273 5.7922 27.5988 5.87169 27.5988 5.93755C27.5988 5.98751 27.5753 6.07494 27.5284 6.19985C27.4837 6.3134 27.4357 6.39288 27.3843 6.4383H27.3508C27.2637 6.4383 27.1587 6.40765 27.0358 6.34633C26.8749 6.29637 26.7945 6.23164 26.7945 6.15216Z" fill="white"/>
<path d="M29.4385 2.08819C29.539 1.72937 29.644 1.54088 29.7535 1.52271C29.8228 1.53179 29.9144 1.56927 30.0283 1.63512C30.1713 1.72824 30.2428 1.80772 30.2428 1.87358C30.2428 1.92354 30.2193 2.01098 30.1724 2.13588C30.1277 2.24943 30.0797 2.32892 30.0283 2.37434H29.9948C29.9077 2.37434 29.8027 2.34368 29.6798 2.28236C29.5189 2.2324 29.4385 2.16768 29.4385 2.08819ZM29.6094 4.29561C29.9199 4.30015 30.0953 4.23316 30.1355 4.09462C30.1221 4.03785 30.0674 3.93111 29.9713 3.77441C29.8887 3.64269 29.8406 3.53255 29.8272 3.44398C29.8786 3.29637 29.9401 3.13172 30.0115 2.95004H30.0417C30.1422 2.95004 30.2383 3.09652 30.3299 3.38948C30.426 3.6461 30.474 3.84822 30.474 3.99584C30.474 4.31605 30.4237 4.55564 30.3232 4.71461C30.2026 4.90537 29.9959 5.00076 29.7032 5.00076H29.6094V4.29561Z" fill="white"/>
<path d="M30.2428 6.42468C30.8549 6.38607 31.2157 6.35314 31.3252 6.32589C31.6491 6.22369 31.9652 6.02044 32.2735 5.71612C32.584 5.41181 32.794 5.0916 32.9035 4.75549C32.7985 4.56927 32.698 4.38645 32.6019 4.20704C32.4455 3.90727 32.3673 3.71082 32.3673 3.61771L32.3908 3.54277C32.3997 3.5246 32.4288 3.44966 32.4779 3.31794C32.5159 3.20212 32.5528 3.14421 32.5885 3.14421C32.6935 3.14421 32.8175 3.29977 32.9605 3.6109C33.1057 3.88115 33.1783 4.08441 33.1783 4.22067C33.1783 5.1268 32.908 5.85693 32.3673 6.41105C32.1127 6.66086 31.8502 6.78577 31.5798 6.78577C31.419 6.78577 31.0113 6.72786 30.3567 6.61204C30.3388 6.59841 30.3009 6.5564 30.2428 6.48599V6.42468ZM31.7306 2.405C31.8312 2.04618 31.9362 1.85768 32.0456 1.83952C32.1149 1.8486 32.2065 1.88607 32.3204 1.95193C32.4634 2.04504 32.5349 2.12453 32.5349 2.19039C32.5349 2.24035 32.5114 2.32778 32.4645 2.45269C32.4198 2.56624 32.3718 2.64572 32.3204 2.69114H32.2869C32.1998 2.69114 32.0948 2.66048 31.9719 2.59917C31.8111 2.54921 31.7306 2.48448 31.7306 2.405Z" fill="white"/>
<path d="M25.5647 6.53709C25.5647 6.48486 25.5948 6.45874 25.6552 6.45874C25.7334 6.45874 25.8573 6.50984 26.0271 6.61204C27.6044 7.60219 29.6519 8.09727 32.1696 8.09727C33.7111 8.09727 35.2135 7.82589 36.6768 7.28312C36.9337 7.18546 37.1996 7.02649 37.4744 6.80621C37.7022 6.59273 37.9335 6.38153 38.168 6.1726L38.1948 6.13172C38.1948 6.06132 38.053 6.00568 37.7693 5.9648C37.6129 5.93073 37.4476 5.90689 37.2733 5.89326C37.1638 5.87509 37.041 5.81718 36.9047 5.71953C36.7528 5.62642 36.6723 5.52422 36.6634 5.41294V5.14724C36.6634 4.70893 36.8567 4.23089 37.2431 3.7131C37.6296 3.19531 38.0239 2.89667 38.4261 2.81718C38.6428 2.91029 38.7511 3.05677 38.7511 3.25662C38.7511 3.34519 38.7277 3.47123 38.6807 3.63475C38.6227 3.80961 38.5501 3.905 38.4629 3.92089C38.2842 3.73467 38.1669 3.64156 38.1111 3.64156C37.9659 3.64156 37.7424 3.81302 37.4409 4.15594C37.1415 4.49659 36.9918 4.74527 36.9918 4.90197C36.9918 4.9542 36.9996 4.98713 37.0153 5.00076C37.1784 5.11204 37.3292 5.17676 37.4677 5.19493C37.9189 5.26079 38.1569 5.29826 38.1814 5.30734C38.4562 5.39137 38.5936 5.56851 38.5936 5.83876C38.5936 6.27025 38.406 6.69606 38.0306 7.1162C37.7 7.46366 37.3157 7.72824 36.8779 7.90992C36.1898 8.18471 35.4135 8.41522 34.5489 8.60144C33.6486 8.79674 32.851 8.8944 32.1562 8.8944C30.2841 8.8944 28.8107 8.68433 27.7362 8.26419C27.4927 8.15291 27.3407 8.08365 27.2804 8.0564C26.8738 7.77706 26.5499 7.54428 26.3086 7.35806C25.8127 6.92657 25.5647 6.65291 25.5647 6.53709Z" fill="white"/>
<path d="M39.1298 0.694928C39.1946 0.324754 39.2404 0.0931113 39.2672 0C39.3275 0.0545042 39.3688 0.152157 39.3912 0.29296C39.4202 0.356548 39.4414 0.458743 39.4548 0.599546C39.6827 2.29599 39.7989 3.18168 39.8034 3.25662C39.8681 3.69947 39.9184 3.95042 39.9542 4.00946C40.0547 4.20023 40.2468 4.29561 40.5305 4.29561V5.00076C40.1284 5.00076 39.8838 4.92127 39.7967 4.7623C39.7274 4.66465 39.657 4.44209 39.5855 4.09462C39.5654 3.9402 39.533 3.70061 39.4884 3.37585C39.3275 1.99962 39.208 1.10598 39.1298 0.694928Z" fill="white"/>
<path d="M40.3998 4.29561C40.5808 4.29561 40.7841 4.26609 41.0097 4.20704C41.2801 4.14118 41.4699 4.06624 41.5794 3.98221C41.461 3.72104 41.4018 3.57456 41.4018 3.54277C41.4018 3.44058 41.4476 3.31681 41.5392 3.17146C41.6353 3.00114 41.6922 2.88304 41.7101 2.81718C41.6453 2.77631 41.6129 2.70363 41.6129 2.59917C41.6129 2.49243 41.6453 2.37207 41.7101 2.23808C41.7727 2.07911 41.8475 1.99962 41.9346 1.99962C42.2094 1.99962 42.5278 2.21423 42.8897 2.64345C43.1779 2.97729 43.3287 3.15329 43.3421 3.17146C43.5297 3.42808 43.6236 3.64724 43.6236 3.82892C43.6236 3.91294 43.5387 4.09462 43.3689 4.37396C43.3197 4.43755 43.2304 4.46934 43.1008 4.46934C42.6629 4.46934 42.3345 4.4137 42.1156 4.30242C41.8542 4.44777 41.5951 4.59198 41.3381 4.73505C40.9718 4.91219 40.6791 5.00076 40.4602 5.00076H40.3998V4.29561ZM42.444 3.84936C42.8506 3.95609 43.0952 4.00946 43.1779 4.00946C43.2382 4.00946 43.2684 3.98675 43.2684 3.94133C43.2684 3.84822 43.1645 3.69493 42.9567 3.48145C42.807 3.31794 42.6585 3.18736 42.511 3.0897C42.549 3.33952 42.5267 3.59273 42.444 3.84936ZM41.6129 3.5564C41.6129 3.60863 41.6219 3.63702 41.6397 3.64156C41.7782 3.71877 41.9179 3.7483 42.0586 3.73013C42.2105 3.62793 42.2865 3.5212 42.2865 3.40992C42.2865 3.31681 42.263 3.22824 42.2161 3.14421C42.167 3.06472 42.1033 3.02498 42.0251 3.02498C41.9559 3.02498 41.8698 3.09538 41.7671 3.23618C41.6643 3.37472 41.6129 3.48145 41.6129 3.5564Z" fill="white"/>
<path d="M34.8572 6.41105C34.8572 6.37699 34.8829 6.35995 34.9343 6.35995C34.999 6.35995 35.1387 6.419 35.3531 6.53709C36.5372 7.14572 37.5526 7.5545 38.3993 7.76344C39.342 7.98599 40.4177 8.09727 41.6263 8.09727C43.4828 8.09727 44.9506 7.92241 46.0296 7.57267C47.1109 7.22521 47.9308 6.56775 48.4893 5.6003C48.4893 5.29826 48.3955 4.96329 48.2078 4.59538C48.0202 4.22748 47.9263 4.02309 47.9263 3.98221C47.9263 3.89364 47.9855 3.69606 48.1039 3.38948C48.095 3.28728 48.1151 3.23618 48.1643 3.23618C48.2559 3.23618 48.3955 3.48486 48.5831 3.98221C48.7753 4.45685 48.8713 4.77593 48.8713 4.93944C48.9495 5.57078 48.6814 6.23959 48.0671 6.94587C47.455 7.65443 46.4742 8.1779 45.1248 8.51628C43.9453 8.75019 42.8037 8.86715 41.7001 8.86715C40.8221 8.86715 39.9899 8.82286 39.2035 8.73429C38.1468 8.58895 37.3548 8.37661 36.8276 8.09727C36.5171 7.94057 36.1741 7.70553 35.7988 7.39213C35.629 7.23543 35.4548 7.08668 35.2761 6.94587C34.9968 6.69152 34.8572 6.51325 34.8572 6.41105ZM46.73 1.64194C46.73 1.59652 46.7792 1.50114 46.8775 1.35579C46.9757 1.20818 47.0383 1.13437 47.0651 1.13437C47.1031 1.13437 47.1969 1.17411 47.3466 1.2536C47.5075 1.34671 47.5879 1.42279 47.5879 1.48183C47.5879 1.52498 47.5421 1.61582 47.4505 1.75435C47.3678 1.91332 47.2963 1.99281 47.236 1.99281C47.1824 1.99281 47.0841 1.94739 46.9411 1.85655C46.8004 1.76571 46.73 1.69417 46.73 1.64194Z" fill="white"/>
<path d="M49.3874 0.746026C49.4432 0.378123 49.5326 0.143073 49.6555 0.0408781C49.6756 0.0635882 49.6923 0.0794852 49.7057 0.0885693C49.7638 0.404239 49.8331 0.915216 49.9135 1.6215C49.9939 2.32551 50.061 2.95912 50.1146 3.52233C50.1704 4.08554 50.1984 4.38304 50.1984 4.41484C50.1984 4.4807 50.1816 4.58516 50.1481 4.72824C50.1168 4.86904 50.0509 4.96442 49.9504 5.01438C49.8789 4.43755 49.8074 3.86412 49.7359 3.2941C49.6667 2.72407 49.5907 2.16313 49.508 1.61128C49.4276 1.05715 49.3874 0.768736 49.3874 0.746026Z" fill="white"/>
<path d="M49.9939 6.42468C50.6061 6.38607 50.9669 6.35314 51.0763 6.32589C51.4003 6.22369 51.7164 6.02044 52.0247 5.71612C52.3352 5.41181 52.5452 5.0916 52.6547 4.75549C52.5497 4.56927 52.4492 4.38645 52.3531 4.20704C52.1967 3.90727 52.1185 3.71082 52.1185 3.61771L52.142 3.54277C52.1509 3.5246 52.1799 3.44966 52.2291 3.31794C52.2671 3.20212 52.3039 3.14421 52.3397 3.14421C52.4447 3.14421 52.5687 3.29977 52.7117 3.6109C52.8569 3.88115 52.9295 4.08441 52.9295 4.22067C52.9295 5.1268 52.6592 5.85693 52.1185 6.41105C51.8638 6.66086 51.6013 6.78577 51.331 6.78577C51.1702 6.78577 50.7624 6.72786 50.1079 6.61204C50.09 6.59841 50.052 6.5564 49.9939 6.48599V6.42468Z" fill="white"/>
<path d="M52.9127 6.36677C52.9306 6.35314 52.9641 6.34633 53.0132 6.34633H53.3517C53.8276 6.34633 54.1504 6.32362 54.3202 6.2782C54.5436 6.20325 54.8172 6.02612 55.1412 5.74678C55.4807 5.46291 55.6896 5.21423 55.7678 5.00076C55.388 5.00076 55.1356 4.97464 55.0105 4.92241C54.7826 4.84519 54.6687 4.64762 54.6687 4.32967C54.6687 4.12983 54.7424 3.905 54.8898 3.65519C55.0485 3.37585 55.2082 3.23618 55.369 3.23618C55.4874 3.23618 55.6226 3.38266 55.7745 3.67562C55.9153 3.90272 56.0091 4.10939 56.056 4.29561H56.2336V5.00076H55.9856C55.9544 5.31643 55.779 5.66957 55.4595 6.06018C55.1334 6.42808 54.8195 6.66768 54.5179 6.77896C54.2476 6.73353 53.9381 6.6779 53.5896 6.61204C53.1384 6.50984 52.9127 6.42808 52.9127 6.36677ZM55.0272 4.16276C55.1322 4.25132 55.2506 4.29561 55.3824 4.29561C55.4048 4.29561 55.4327 4.29107 55.4662 4.28198C55.4662 4.21158 55.4495 4.14232 55.416 4.07419C55.3668 3.98107 55.3121 3.93452 55.2518 3.93452C55.1423 3.93452 55.0674 4.0106 55.0272 4.16276Z" fill="white"/>
<path d="M56.1163 4.29561C56.2303 4.30015 56.3967 4.2536 56.6156 4.15594C56.8346 4.05829 56.9653 4.00946 57.0077 4.00946C57.0904 4.00946 57.2334 4.05715 57.4367 4.15254C57.6399 4.24792 57.803 4.29561 57.9259 4.29561V5.00076C57.7852 5.00076 57.6154 4.94852 57.4165 4.84406C57.2177 4.73959 57.0814 4.68736 57.0077 4.68736C56.9742 4.68736 56.8591 4.73959 56.6626 4.84406C56.466 4.94852 56.304 5.00076 56.1767 5.00076H56.1163V4.29561ZM56.9206 2.34368C57.0256 2.03255 57.1217 1.86109 57.2088 1.8293C57.287 1.87017 57.3719 1.92127 57.4635 1.98259C57.5595 2.06207 57.6254 2.13361 57.6612 2.1972C57.5919 2.55602 57.4936 2.73543 57.3663 2.73543C57.3194 2.73543 57.2345 2.6866 57.1116 2.58895C57.0155 2.48675 56.9519 2.405 56.9206 2.34368ZM56.1163 2.65708C56.1163 2.55034 56.199 2.37661 56.3643 2.13588C56.6168 2.31302 56.7787 2.43793 56.8502 2.5106V2.53444C56.8502 2.6162 56.8279 2.71612 56.7832 2.83422C56.7318 2.95912 56.6815 3.02157 56.6324 3.02157C56.5765 3.02157 56.476 2.97388 56.3308 2.8785C56.1878 2.78312 56.1163 2.70931 56.1163 2.65708Z" fill="white"/>
<path d="M57.7751 4.29561C58.0923 4.29561 58.3951 4.25814 58.6832 4.18319C59.1122 4.081 59.3613 3.93452 59.4305 3.74375C59.4998 3.55299 59.5635 3.4349 59.6215 3.38948C59.6417 3.4031 59.6517 3.43376 59.6517 3.48145C59.6517 3.62907 59.6104 3.82665 59.5277 4.07419C59.5903 4.0969 59.645 4.10825 59.6919 4.10825C60.1588 4.10825 60.4839 4.03785 60.6671 3.89705C60.781 3.80394 60.8681 3.65064 60.9285 3.43717C60.9865 3.23278 61.077 3.1056 61.1999 3.05564L61.2167 3.08289C61.2256 3.09652 61.2301 3.11241 61.2301 3.13058C61.2301 3.20098 61.1999 3.37131 61.1396 3.64156C61.2044 3.74375 61.2703 3.80621 61.3373 3.82892C61.3574 3.83346 61.4557 3.85617 61.6322 3.89705L61.8064 3.82892C61.8064 3.78123 61.7964 3.73013 61.7763 3.67562C61.7584 3.61885 61.7495 3.57911 61.7495 3.5564C61.7495 3.52914 61.7796 3.42241 61.8399 3.23618C61.9181 3.02271 61.9572 2.90916 61.9572 2.89553C62.0064 2.89553 62.0567 2.97388 62.108 3.13058C62.1527 3.25549 62.1751 3.35768 62.1751 3.43717C62.1751 3.71196 62.127 3.96064 62.031 4.18319C61.9036 4.47615 61.7204 4.62263 61.4814 4.62263C61.363 4.62263 61.1619 4.5352 60.8782 4.36033C60.8089 4.53066 60.647 4.66238 60.3923 4.75549C60.1957 4.82135 59.9868 4.85428 59.7656 4.85428C59.5467 4.85428 59.3434 4.82135 59.1557 4.75549C58.7223 4.919 58.318 5.00076 57.9427 5.00076H57.7751V4.29561Z" fill="white"/>
<path d="M62.0645 6.42468C62.6766 6.38607 63.0374 6.35314 63.1469 6.32589C63.4708 6.22369 63.7869 6.02044 64.0952 5.71612C64.4057 5.41181 64.6157 5.0916 64.7252 4.75549C64.6202 4.56927 64.5197 4.38645 64.4236 4.20704C64.2672 3.90727 64.189 3.71082 64.189 3.61771L64.2125 3.54277C64.2214 3.5246 64.2505 3.44966 64.2996 3.31794C64.3376 3.20212 64.3745 3.14421 64.4102 3.14421C64.5152 3.14421 64.6392 3.29977 64.7822 3.6109C64.9274 3.88115 65 4.08441 65 4.22067C65 5.1268 64.7297 5.85693 64.189 6.41105C63.9344 6.66086 63.6719 6.78577 63.4015 6.78577C63.2407 6.78577 62.833 6.72786 62.1784 6.61204C62.1605 6.59841 62.1226 6.5564 62.0645 6.48599V6.42468Z" fill="white"/>
<path d="M14.9875 23.7539H13.8727C12.4453 23.7539 11.1995 23.3074 10.1353 22.4145C9.13868 21.5817 8.42922 20.4655 8.00692 19.0661C7.82111 18.4479 7.41147 18.1388 6.77802 18.1388C6.4064 18.1388 6.08968 18.2676 5.82785 18.5251C5.57447 18.7741 5.44778 19.0832 5.44778 19.4524C5.44778 19.8216 5.57447 20.1393 5.82785 20.4054C6.08968 20.663 6.4064 20.7918 6.77802 20.7918H8.81773V23.7539H6.91738C5.73494 23.7539 4.71298 23.346 3.85149 22.5304C2.99844 21.7148 2.57192 20.6888 2.57192 19.4524C2.57192 18.2762 2.98155 17.2716 3.80081 16.4388C4.62007 15.606 5.61248 15.1896 6.77802 15.1896C7.68175 15.1896 8.50945 15.4729 9.26115 16.0396C10.0128 16.5977 10.528 17.3189 10.8068 18.2032C11.3304 19.9289 12.3524 20.7918 13.8727 20.7918H14.9875V23.7539Z" fill="white"/>
<path d="M20.5112 12.807H19.067C18.67 12.807 18.3279 12.6654 18.0408 12.382C17.7536 12.0901 17.61 11.7424 17.61 11.3389C17.61 10.9354 17.7536 10.5876 18.0408 10.2957C18.3279 10.0038 18.67 9.85784 19.067 9.85784C19.4639 9.85784 19.8018 10.0038 20.0805 10.2957C20.3676 10.5876 20.5112 10.9354 20.5112 11.3389V12.807ZM25.5028 23.7539H24.3753C23.2013 23.7539 22.1202 23.389 21.132 22.6592V23.7539H13.8727V20.7918H18.2308V15.2797H21.132V17.1214C21.132 18.1774 21.4318 19.0532 22.0315 19.7486C22.6312 20.4441 23.4124 20.7918 24.3753 20.7918H25.5028V23.7539Z" fill="white"/>
<path d="M35.9167 23.7539H34.7892C33.6152 23.7539 32.5341 23.389 31.5459 22.6592V23.7539H24.2866V20.7918H28.6447V15.2797H31.5459V17.1214C31.5459 18.1774 31.8458 19.0532 32.4454 19.7486C33.0451 20.4441 33.8263 20.7918 34.7892 20.7918H35.9167V23.7539ZM33.535 28.9955H32.0654C31.6684 28.9955 31.3263 28.8495 31.0392 28.5576C30.7604 28.2657 30.6211 27.918 30.6211 27.5144C30.6211 27.1023 30.7604 26.7546 31.0392 26.4713C31.3263 26.1879 31.6684 26.0463 32.0654 26.0463C32.4708 26.0463 32.817 26.1879 33.1042 26.4713C33.3914 26.7546 33.535 27.1023 33.535 27.5144V28.9955ZM30.241 28.9955H28.7841C28.3787 28.9955 28.0324 28.8495 27.7452 28.5576C27.4665 28.2657 27.3271 27.918 27.3271 27.5144C27.3271 27.1023 27.4665 26.7546 27.7452 26.4713C28.0324 26.1879 28.3787 26.0463 28.7841 26.0463C29.181 26.0463 29.5231 26.1879 29.8103 26.4713C30.0974 26.7546 30.241 27.1023 30.241 27.5144V28.9955Z" fill="white"/>
<path d="M49.0925 23.7539H34.7005V20.7918H46.0266C45.7817 20.0362 45.3425 19.4181 44.709 18.9373C44.084 18.4565 43.3661 18.2161 42.5553 18.2161L38.2352 18.2289V15.2797H42.5553C44.3543 15.2797 45.8914 15.928 47.1668 17.2244C48.4506 18.5123 49.0925 20.0749 49.0925 21.9122V23.7539ZM41.6685 13.7601H40.2242C39.8272 13.7601 39.4852 13.6184 39.198 13.3351C38.9108 13.0432 38.7672 12.6954 38.7672 12.2919C38.7672 11.8884 38.9108 11.5406 39.198 11.2487C39.4852 10.9568 39.8272 10.8109 40.2242 10.8109C40.6211 10.8109 40.959 10.9568 41.2377 11.2487C41.5249 11.5406 41.6685 11.8884 41.6685 12.2919V13.7601Z" fill="white"/>
<path d="M58.2706 23.7539H57.1431C55.9775 23.7539 54.8964 23.389 53.8998 22.6592V23.3675C53.8998 25.222 53.241 26.7889 51.9234 28.0682C50.6143 29.3561 48.9758 30 47.0079 30V27.0508C48.1818 27.0508 49.1405 26.6945 49.8837 25.9819C50.6354 25.2693 51.0113 24.3978 51.0113 23.3675V15.2797H53.8998V17.1214C53.8998 18.1774 54.1996 19.0532 54.7993 19.7486C55.4074 20.4441 56.1887 20.7918 57.1431 20.7918H58.2706V23.7539Z" fill="white"/>
<path d="M64.4024 23.7539H57.1431V20.7918H61.5012V15.2797H64.4024V23.7539ZM64.5291 12.601H63.0595C62.6625 12.601 62.3205 12.455 62.0333 12.1631C61.7546 11.8712 61.6152 11.5235 61.6152 11.1199C61.6152 10.7078 61.7546 10.3601 62.0333 10.0768C62.3205 9.79345 62.6625 9.65178 63.0595 9.65178C63.4649 9.65178 63.8112 9.79345 64.0983 10.0768C64.3855 10.3601 64.5291 10.7078 64.5291 11.1199V12.601ZM61.2351 12.601H59.7782C59.3728 12.601 59.0265 12.455 58.7393 12.1631C58.4606 11.8712 58.3213 11.5235 58.3213 11.1199C58.3213 10.7078 58.4606 10.3601 58.7393 10.0768C59.0265 9.79345 59.3728 9.65178 59.7782 9.65178C60.1752 9.65178 60.5172 9.79345 60.8044 10.0768C61.0916 10.3601 61.2351 10.7078 61.2351 11.1199V12.601Z" fill="white"/>
</svg>
